# xmcd
#
# Track frame offsets:
# 150
# 19045
# 38089
# 58774
# 85848
# 108725
# 142511
# 163373
# 183187
# 203198
# 215883
# 236621
# 252663
# 269045
#
# Disc length: 4178 seconds
#
#
# Revision: 0
# Processed by: cddbd v1.5.1PL2 Copyright (c) Steve Scherf et al.
# Submitted via: FreeRIP 2.944 
#
DISCID=d110500e
DTITLE=Fenzl Experience - Dicovering
DYEAR=2006
DGENRE=Southern Rock
TTITLE0=Them Changes
TTITLE1=Come On
TTITLE2=Tight Rope
TTITLE3=Black Hearted Woman
TTITLE4=Born With A Broken Heart
TTITLE5=The Real Thing
TTITLE6=Beer Drinkers And Hell Raisers
TTITLE7=Ten Dollar Man
TTITLE8=Sick And Tired
TTITLE9=Bony Moronie
TTITLE10=Oh Well
TTITLE11=Freedom
TTITLE12=Evil (Is Going On)
TTITLE13=La Grange (Bonus Track)
EXTD=
EXTT0=
EXTT1=
EXTT2=
EXTT3=
EXTT4=
EXTT5=
EXTT6=
EXTT7=
EXTT8=
EXTT9=
EXTT10=
EXTT11=
EXTT12=
EXTT13=
PLAYORDER=
